<svg width="300" height="300" viewBox="0 0 300 300" fill="none" xmlns="http://www.w3.org/2000/svg">
<path d="M150 62.5C150.015 57.5004 149.03 52.5483 147.102 47.935C145.175 43.3217 142.345 39.1403 138.778 35.6368C135.212 32.1333 130.98 29.3784 126.333 27.5341C121.686 25.6899 116.717 24.7935 111.719 24.8977C106.72 25.0018 101.793 26.1045 97.2267 28.1408C92.6606 30.1771 88.5477 33.106 85.13 36.7551C81.7123 40.4041 79.0589 44.6998 77.3256 49.3894C75.5924 54.079 74.8144 59.0678 75.0375 64.0625M150 62.5V225M150 62.5C149.985 57.5004 150.97 52.5483 152.898 47.935C154.825 43.3217 157.655 39.1403 161.222 35.6368C164.788 32.1333 169.02 29.3784 173.667 27.5341C178.314 25.6899 183.283 24.7935 188.281 24.8977C193.28 25.0018 198.207 26.1045 202.773 28.1408C207.339 30.1771 211.452 33.106 214.87 36.7551C218.288 40.4041 220.941 44.6998 222.674 49.3894C224.408 54.079 225.186 59.0678 224.962 64.0625M75.0375 64.0625C67.69 65.9517 60.8688 69.4881 55.0904 74.4039C49.312 79.3197 44.728 85.4859 41.6855 92.4356C38.6431 99.3853 37.222 106.936 37.5299 114.516C37.8377 122.097 39.8665 129.507 43.4625 136.188M75.0375 64.0625C75.2847 70.1092 76.9916 76.0062 80.0125 81.25M43.4625 136.188C37.1398 141.324 32.1678 147.928 28.9792 155.424C25.7906 162.921 24.482 171.082 25.167 179.2C25.8521 187.317 28.5102 195.144 32.9101 202C37.3099 208.856 43.3183 214.533 50.4125 218.537M43.4625 136.188C45.7492 134.325 48.1963 132.681 50.775 131.25M50.4125 218.537C49.5365 225.315 50.0592 232.201 51.9486 238.769C53.8379 245.337 57.0537 251.448 61.3973 256.724C65.7409 262.001 71.1201 266.331 77.2027 269.447C83.2854 272.563 89.9422 274.399 96.7622 274.842C103.582 275.284 110.421 274.324 116.855 272.02C123.289 269.716 129.183 266.118 134.172 261.447C139.161 256.776 143.14 251.132 145.862 244.863C148.584 238.595 149.993 231.834 150 225M50.4125 218.537C57.9158 222.77 66.3854 225.004 75 225M150 225C150.007 231.834 151.416 238.595 154.138 244.863C156.86 251.132 160.839 256.776 165.828 261.447C170.817 266.118 176.711 269.716 183.145 272.02C189.579 274.324 196.418 275.284 203.238 274.842C210.058 274.399 216.715 272.563 222.797 269.447C228.88 266.331 234.259 262.001 238.603 256.724C242.946 251.448 246.162 245.337 248.051 238.769C249.941 232.201 250.464 225.315 249.587 218.537M224.962 64.0625C232.31 65.9517 239.131 69.4881 244.91 74.4039C250.688 79.3197 255.272 85.4859 258.314 92.4356C261.357 99.3853 262.778 106.936 262.47 114.516C262.162 122.097 260.134 129.507 256.538 136.188M224.962 64.0625C224.711 70.1102 223.013 76.0073 219.988 81.25M256.538 136.188C262.86 141.324 267.832 147.928 271.021 155.424C274.209 162.921 275.518 171.082 274.833 179.2C274.148 187.317 271.49 195.144 267.09 202C262.69 208.856 256.682 214.533 249.587 218.537M256.538 136.188C254.251 134.325 251.804 132.681 249.225 131.25M249.587 218.537C242.084 222.77 233.615 225.004 225 225M187.5 162.5C177.006 158.808 167.841 152.087 161.167 143.188C154.492 134.288 150.606 123.608 150 112.5C149.394 123.608 145.508 134.288 138.833 143.188C132.159 152.087 122.994 158.808 112.5 162.5" stroke="#F43F5E" stroke-width="32" stroke-linecap="round" stroke-linejoin="round"/>
</svg>
