<svg width="500" height="500" viewBox="0 0 500 500" fill="none" xmlns="http://www.w3.org/2000/svg">
<rect width="500" height="500" rx="86" fill="url(#paint0_linear_3_2)"/>
<path d="M250 162.5C250.015 157.5 249.03 152.548 247.102 147.935C245.175 143.322 242.345 139.14 238.778 135.637C235.212 132.133 230.98 129.378 226.333 127.534C221.686 125.69 216.717 124.793 211.719 124.898C206.72 125.002 201.793 126.105 197.227 128.141C192.661 130.177 188.548 133.106 185.13 136.755C181.712 140.404 179.059 144.7 177.326 149.389C175.592 154.079 174.814 159.068 175.037 164.063M250 162.5V325M250 162.5C249.985 157.5 250.97 152.548 252.898 147.935C254.825 143.322 257.655 139.14 261.222 135.637C264.788 132.133 269.02 129.378 273.667 127.534C278.314 125.69 283.283 124.793 288.281 124.898C293.28 125.002 298.207 126.105 302.773 128.141C307.339 130.177 311.452 133.106 314.87 136.755C318.288 140.404 320.941 144.7 322.674 149.389C324.408 154.079 325.186 159.068 324.962 164.063M175.037 164.063C167.69 165.952 160.869 169.488 155.09 174.404C149.312 179.32 144.728 185.486 141.686 192.436C138.643 199.385 137.222 206.936 137.53 214.516C137.838 222.097 139.866 229.507 143.462 236.188M175.037 164.063C175.285 170.109 176.992 176.006 180.012 181.25M143.462 236.188C137.14 241.324 132.168 247.928 128.979 255.424C125.791 262.921 124.482 271.082 125.167 279.2C125.852 287.317 128.51 295.144 132.91 302C137.31 308.856 143.318 314.533 150.412 318.537M143.462 236.188C145.749 234.325 148.196 232.681 150.775 231.25M150.412 318.537C149.536 325.315 150.059 332.201 151.949 338.769C153.838 345.337 157.054 351.448 161.397 356.724C165.741 362.001 171.12 366.331 177.203 369.447C183.285 372.563 189.942 374.399 196.762 374.842C203.582 375.284 210.421 374.324 216.855 372.02C223.289 369.716 229.183 366.118 234.172 361.447C239.161 356.776 243.14 351.132 245.862 344.863C248.584 338.595 249.993 331.834 250 325M150.412 318.537C157.916 322.77 166.385 325.004 175 325M250 325C250.007 331.834 251.416 338.595 254.138 344.863C256.86 351.132 260.839 356.776 265.828 361.447C270.817 366.118 276.711 369.716 283.145 372.02C289.579 374.324 296.418 375.284 303.238 374.842C310.058 374.399 316.715 372.563 322.797 369.447C328.88 366.331 334.259 362.001 338.603 356.724C342.946 351.448 346.162 345.337 348.051 338.769C349.941 332.201 350.464 325.315 349.587 318.537M324.962 164.063C332.31 165.952 339.131 169.488 344.91 174.404C350.688 179.32 355.272 185.486 358.314 192.436C361.357 199.385 362.778 206.936 362.47 214.516C362.162 222.097 360.134 229.507 356.538 236.188M324.962 164.063C324.711 170.11 323.013 176.007 319.988 181.25M356.538 236.188C362.86 241.324 367.832 247.928 371.021 255.424C374.209 262.921 375.518 271.082 374.833 279.2C374.148 287.317 371.49 295.144 367.09 302C362.69 308.856 356.682 314.533 349.587 318.537M356.538 236.188C354.251 234.325 351.804 232.681 349.225 231.25M349.587 318.537C342.084 322.77 333.615 325.004 325 325M287.5 262.5C277.006 258.808 267.841 252.087 261.167 243.188C254.492 234.288 250.606 223.608 250 212.5C249.394 223.608 245.508 234.288 238.833 243.188C232.159 252.087 222.994 258.808 212.5 262.5" stroke="#F43F5E" stroke-width="32" stroke-linecap="round" stroke-linejoin="round"/>
<defs>
<linearGradient id="paint0_linear_3_2" x1="250" y1="0" x2="250" y2="500" gradientUnits="userSpaceOnUse">
<stop stop-color="#01050E"/>
<stop offset="0.947115" stop-color="#181A1F"/>
</linearGradient>
</defs>
</svg>
